<?xml version="1.0" encoding="UTF-8"?>
<!DOCTYPE svg PUBLIC "-//W3C//DTD SVG 1.1//EN" "http://www.w3.org/Graphics/SVG/1.1/DTD/svg11.dtd">
<!-- Creator: CorelDRAW 2019 (64-Bit) -->
<svg xmlns="http://www.w3.org/2000/svg" xml:space="preserve" width="11in" height="8.5in" version="1.1" style="shape-rendering:geometricPrecision; text-rendering:geometricPrecision; image-rendering:optimizeQuality; fill-rule:evenodd; clip-rule:evenodd"
viewBox="0 0 11000 8500"
 xmlns:xlink="http://www.w3.org/1999/xlink">
 <defs>
  <style type="text/css">
   <![CDATA[
    .fil14 {fill:none}
    .fil63 {fill:#373435}
    .fil55 {fill:black}
    .fil3 {fill:#121317}
    .fil2 {fill:#1A1A1A}
    .fil26 {fill:#1C1D21}
    .fil44 {fill:#1D1E23}
    .fil33 {fill:#26272B}
    .fil52 {fill:#2B2C30}
    .fil7 {fill:#323337}
    .fil11 {fill:#323433}
    .fil45 {fill:#333333}
    .fil62 {fill:#35363A}
    .fil54 {fill:#3B3C3E}
    .fil46 {fill:#3B3C40}
    .fil17 {fill:#3D3F3C}
    .fil47 {fill:#3E3F43}
    .fil41 {fill:#404146}
    .fil64 {fill:#434446}
    .fil23 {fill:#47484C}
    .fil22 {fill:#49484D}
    .fil25 {fill:#4A4B4F}
    .fil1 {fill:#4D4D4D}
    .fil9 {fill:#4D4E52}
    .fil13 {fill:#4F514E}
    .fil24 {fill:#505153}
    .fil18 {fill:#515151}
    .fil34 {fill:#515256}
    .fil38 {fill:#545051}
    .fil48 {fill:#54534F}
    .fil42 {fill:#55565B}
    .fil27 {fill:#555754}
    .fil50 {fill:#5F5F5D}
    .fil36 {fill:#60615C}
    .fil35 {fill:#63645F}
    .fil53 {fill:#68696E}
    .fil6 {fill:#6F7277}
    .fil29 {fill:#70716C}
    .fil43 {fill:#727377}
    .fil56 {fill:#7A7C79}
    .fil57 {fill:#7A7C7B}
    .fil60 {fill:gray}
    .fil61 {fill:#80827F}
    .fil51 {fill:#82837E}
    .fil16 {fill:#848685}
    .fil37 {fill:#868885}
    .fil21 {fill:#909493}
    .fil12 {fill:#929491}
    .fil32 {fill:#959794}
    .fil30 {fill:#999A95}
    .fil49 {fill:#9E9F9A}
    .fil58 {fill:#9F7B07}
    .fil19 {fill:#AAABAD}
    .fil20 {fill:#ACACAC}
    .fil15 {fill:#B1B5B4}
    .fil10 {fill:#BABCB9}
    .fil39 {fill:#C59809}
    .fil28 {fill:#CCCECD}
    .fil8 {fill:#D8DAD7}
    .fil5 {fill:#E5E6EB}
    .fil31 {fill:#E6E6E4}
    .fil40 {fill:#EEEFF3}
    .fil59 {fill:red}
    .fil0 {fill:url(#id0)}
    .fil4 {fill:url(#id1)}
   ]]>
  </style>
  <linearGradient id="id0" gradientUnits="userSpaceOnUse" x1="5596.24" y1="5337.21" x2="9327.65" y2="206.07">
   <stop offset="0" style="stop-opacity:1; stop-color:#999999"/>
   <stop offset="1" style="stop-opacity:1; stop-color:black"/>
  </linearGradient>
  <radialGradient id="id1" gradientUnits="userSpaceOnUse" gradientTransform="matrix(-0.998317 0.165372 0.0422932 -1.32784 12782 5589)" cx="6456.7" cy="2859.81" r="2935.92" fx="6456.7" fy="2859.81">
   <stop offset="0" style="stop-opacity:1; stop-color:#292829"/>
   <stop offset="1" style="stop-opacity:1; stop-color:#C5CAD0"/>
  </radialGradient>
 </defs>
 <g id="Capa_x0020_1">
  <metadata id="CorelCorpID_0Corel-Layer"/>
  <polygon class="fil0" points="10085.8,4099.8 10085.8,7095.34 1703.84,7095.34 1703.84,2707.65 "/>
  <ellipse class="fil1" cx="7050.16" cy="3945.84" rx="997.21" ry="1385.94"/>
  <path class="fil2" d="M6611.36 5455.04l1883.71 498.7 45.35 -471.5 -1.85 -21.56 -18.1 -154.28 -3.65 23.76 -4.02 -0.75 -43.08 129.26 -59.82 27.19 -319.04 -97.89 -43.5 -56.19c7.6,11.89 4.82,7.33 -7.25,12.69l-72.51 38.06 -937.17 -261.03 -268.65 -83.41 -126.89 94.26 -25.41 88.8 1.87 233.89zm-1.87 -233.89l-39.73 14.83 0.58 3.04 39.15 -17.88zm704.41 -164.85l-0.01 -0 -0.78 0.33 0.79 -0.32zm-402.39 -54.78l2.96 2.16 0.3 0.21 0.63 0.45 -3.89 -2.82zm23.04 15.91c1.53,1 3.07,1.98 4.61,2.96 -1.54,-0.98 -3.07,-1.97 -4.61,-2.96zm11.49 7.24c1.59,0.97 3.19,1.93 4.79,2.88 -1.6,-0.95 -3.2,-1.91 -4.79,-2.88zm11.17 6.6c1.94,1.11 3.88,2.2 5.83,3.28 -1.95,-1.08 -3.89,-2.17 -5.83,-3.28zm12.22 6.74c2.07,1.1 4.14,2.19 6.22,3.25 -2.08,-1.06 -4.15,-2.15 -6.22,-3.25zm11.96 6.14c2.15,1.06 4.31,2.11 6.48,3.14 -2.17,-1.03 -4.32,-2.07 -6.48,-3.14zm11.85 5.65c2.58,1.19 5.17,2.34 7.77,3.46 -2.6,-1.13 -5.19,-2.28 -7.77,-3.46zm11.87 5.22c2.82,1.19 5.66,2.35 8.5,3.48 -2.84,-1.13 -5.68,-2.29 -8.5,-3.48zm12.56 5.06c2.92,1.13 5.85,2.21 8.8,3.27 -2.94,-1.06 -5.87,-2.15 -8.8,-3.27zm12.48 4.58c3.27,1.14 6.56,2.24 9.85,3.3 -3.29,-1.06 -6.57,-2.16 -9.85,-3.3zm12.34 4.09c3.42,1.07 6.85,2.09 10.29,3.08 -3.44,-0.98 -6.87,-2.01 -10.29,-3.08zm12.63 3.74c3.55,0.98 7.1,1.93 10.68,2.81 -3.57,-0.89 -7.13,-1.83 -10.68,-2.81zm12.89 3.36c3.8,0.93 7.61,1.79 11.43,2.61 -3.83,-0.81 -7.63,-1.68 -11.43,-2.61zm13.11 2.95c3.88,0.8 7.77,1.56 11.67,2.24 -3.91,-0.69 -7.8,-1.44 -11.67,-2.24zm12.91 2.46c4.07,0.7 8.17,1.35 12.27,1.93 -4.11,-0.58 -8.19,-1.22 -12.27,-1.93zm12.98 2.03c4.32,0.6 8.66,1.13 13.01,1.59 -4.35,-0.46 -8.69,-0.99 -13.01,-1.59zm13.4 1.63c4.29,0.44 8.59,0.82 12.91,1.13 -4.32,-0.31 -8.62,-0.68 -12.91,-1.13zm13.74 1.19c4.29,0.3 8.59,0.52 12.91,0.67 -4.32,-0.15 -8.62,-0.38 -12.91,-0.67zm13.39 0.69c4.48,0.15 8.98,0.24 13.49,0.24 -4.51,0 -9,-0.08 -13.49,-0.24zm13.49 0.24c8.55,0 17.06,-0.28 25.51,-0.83 -8.45,0.55 -16.95,0.83 -25.51,0.83zm25.92 -0.85c4.08,-0.27 8.15,-0.61 12.21,-1 -4.06,0.4 -8.13,0.73 -12.21,1zm12.81 -1.06c3.89,-0.39 7.77,-0.83 11.64,-1.33 -3.87,0.5 -7.75,0.94 -11.64,1.33zm12.95 -1.5c3.67,-0.48 7.33,-1.03 10.97,-1.62 -3.65,0.59 -7.3,1.13 -10.97,1.62zm12.96 -1.94c3.39,-0.57 6.78,-1.18 10.15,-1.83 -3.37,0.65 -6.76,1.26 -10.15,1.83zm12.92 -2.39c3.13,-0.63 6.24,-1.3 9.35,-2 -3.11,0.7 -6.22,1.37 -9.35,2zm12.46 -2.72c3.01,-0.7 6.01,-1.44 9,-2.22 -2.98,0.77 -5.99,1.52 -9,2.22zm12.71 -3.21c2.74,-0.74 5.48,-1.51 8.22,-2.31 -2.73,0.8 -5.47,1.57 -8.22,2.31zm12.48 -3.58c2.36,-0.72 4.71,-1.46 7.06,-2.22 -2.35,0.76 -4.7,1.5 -7.06,2.22zm12.34 -3.97c2.24,-0.76 4.47,-1.54 6.69,-2.33 -2.23,0.8 -4.45,1.57 -6.69,2.33zm12.53 -4.48c1.9,-0.71 3.8,-1.44 5.69,-2.18 -1.89,0.74 -3.79,1.47 -5.69,2.18z"/>
  <path class="fil1" d="M8495.07 5953.73l949.86 -493.06 -122.82 -239.38 -277.76 135.86 1.81 -103.33 -307.4 -180.37 -167.53 80.67 115.5 -46.13 -12.17 183.89 232.21 40.98 -366.34 149.37 -45.35 471.5zm678.4 -1022.13l-7.67 -14.94 -69.78 27.87 -42.58 -22.59 18.07 -8.7c41.74,-8.12 52.17,-4.33 94.29,3.43l2.41 17.33 5.25 -2.39z"/>
  <polygon class="fil3" points="2526.37,3428.37 2482.86,3405.71 2292.53,3422.02 2233.61,3580.64 2220.02,4696.37 2382.56,4681.02 2403.13,3601.48 2434.94,3488.41 2454.31,3482.33 2527.09,3477.05 2535.04,3474.07 2535.43,3470.98 "/>
  <path class="fil4" d="M5056.42 909.48l-1326.91 1928.72 -65.26 2748.06 384.3 -101.51 87.01 398.8 580.07 -261.03 21.75 36.26 311.79 87.01c-1295.48,-3255.62 2462.86,-5822.41 2813.32,-2371.02l600.15 121.7 16.18 -1367.04 -754.09 -1314.21 -1167.38 -145.02 -1500.92 239.28z"/>
  <polygon class="fil5" points="6557.34,670.21 5904.76,681.08 4490.85,894.98 5056.42,909.48 "/>
  <polygon class="fil6" points="5056.42,909.48 3729.52,2838.21 3146.72,2748.48 4490.85,894.98 "/>
  <path class="fil7" d="M3146.72 2748.48l582.79 89.73 -65.26 2748.06 -557.42 -216.62 4.7 -308.85 174.38 57.01 -32.63 -790.34 159.52 -47.13 -126.66 -21.56 18.39 -102.31c2.94,-16.37 12.63,-37 41.15,-43.45l253.47 -57.39c7.02,-33.67 0.23,-61.2 -14.5,-85.2 -54.33,12.13 -102.2,20.44 -144.1,27.81 5.43,-31.49 -1.4,-57.54 -15.42,-80.38 -138.03,30.81 -234.28,37.03 -297.22,65.6l18.8 -1234.98zm43.23 1493.93l-65.79 -11.2 -0 0 0.19 -12.26 20.69 -115.05c2.94,-16.36 12.63,-36.99 41.15,-43.45l95.26 -21.57c-59.91,29.65 -87.72,82.51 -91.49,203.53z"/>
  <path class="fil8" d="M4100.31 1433.52l-7.36 2.55 -14.5 3.63 -29 14.5c-281.59,71.39 -1180.26,526.83 -1403.04,2008.48l104.76 4.67 -16.31 16.31c-2.7,186.78 9.02,365.55 26.66,541.02l131.42 641.64 -3.63 -478.56 140.7 26.02c0.81,-142.41 29.92,-199.44 97.93,-230.33l18.79 -1234.98 953.58 -1314.95zm-979.94 2796.98l3.8 0.7 0.19 -12.28 -1.93 10.72 -2.06 0.86z"/>
  <path class="fil9" d="M2912.57 2549.87c-434.19,-96.61 -861.63,461.87 -650.36,952.12l0.64 -0.07 29.68 -79.9 190.33 -16.31 43.5 22.65 9.07 42.61 -0.4 3.09 111.37 -11.39c54.53,-362.66 149.61,-663.7 266.17,-912.81z"/>
  <path class="fil8" d="M5848.17 5233.91l-0 0 -251.92 103.3 -3.99 187.01 -564.83 207.34c-753.91,-1705.01 243.89,-3808.07 1464.66,-4009.7 729.26,-8.99 1240.61,424.35 1370.41,1652.91l-217.53 -14.22 -88.19 21.3c-111.76,-102.14 -228.27,-139.89 -348.81,-123.26l168.28 -801.74c130.98,250.22 211.38,542.99 228.47,883.54l40.04 5.38c-3.66,-416.93 -99.24,-741.8 -246.65,-993.11l0.17 -0.81 -24.5 -41.06 -12.31 -19.59 -13.77 -21.18 -6.8 -7.71 -0.06 0.02c-171.78,-251 -397.79,-419.49 -628.26,-528.26 223.97,149.43 415.34,332.29 562.98,553.11l-17.06 6.5 -200.06 924.84 -111.77 -36.63c-259.91,-4.83 -455.71,134.56 -599.61,390.76l-310.36 660.61 123.26 50.76 -14.5 36.25 -58 7.25 0 30.82 30.81 7.25 -1.81 130.52 -27.19 -1.81 -5.57 541.91 -155.79 165.03 -79.74 32.7zm1352.9 -1974.33c-1.71,0.26 -3.42,0.54 -5.13,0.82 1.71,-0.29 3.42,-0.56 5.13,-0.82zm-5.7 0.92c-1.72,0.29 -3.44,0.59 -5.16,0.91 1.72,-0.31 3.44,-0.61 5.16,-0.91zm-56.39 -15.59l187.7 -876.73 0 0 -187.7 876.72zm28.35 230.95l2.74 75.22 344.08 64.19 -316.96 -59.13 0 72.16c-11.94,-1.1 -23.99,-1.72 -36.14,-1.72 -23.44,0 -46.53,2.1 -69.17,6.16 23.84,-51.21 48.98,-103.49 75.46,-156.89zm-121.35 167.96l-0.04 0.02 0.04 -0.02zm-0.04 0.02l-0.04 0.01 0.04 -0.01zm-0.04 0.01l-0.04 0.01 0.04 -0.01zm-0.04 0.01l-0.04 0.01 0.04 -0.01zm-0.04 0.01l-0.05 0.02 0.05 -0.02zm-0.05 0.02l-0.04 0.01 0.04 -0.01zm-0.04 0.01l-0.04 0.01 0.04 -0.01zm-0.04 0.01l-0.04 0.01 0.04 -0.01zm-0.04 0.01l-0.04 0.02 0.04 -0.02zm-0.04 0.02l-0.09 0.02 0.09 -0.02zm-0.09 0.02l-0.04 0.01 0.04 -0.01zm-0.04 0.01l-0.05 0.02 0.05 -0.02zm-0.05 0.02l-0.21 0.06 0.21 -0.06zm-0.21 0.06l-0.04 0.01 0.04 -0.01zm-0.04 0.01l-1.8 0.54 1.8 -0.54zm-1.8 0.54l-0.04 0.01 0.04 -0.01zm-0.04 0.01l-0.04 0.02 0.04 -0.02zm-0.04 0.02l-0.04 0.01 0.04 -0.01zm-202.1 129.26l-2.59 2.73 2.59 -2.73zm-2.8 2.96l-0.06 0.06 0.05 -0.06 0 0zm-0.06 0.06l-0.05 0.06 0.05 -0.06zm-0.05 0.06l-0.06 0.06 0.06 -0.06zm-0.06 0.06l-0.05 0.06 0.05 -0.06zm-0.05 0.06l-0.06 0.06 0.06 -0.06zm-0.06 0.06l-0.05 0.06 0.05 -0.06zm-0.05 0.06l-0.06 0.06 0.06 -0.06zm-0.06 0.06l-0.05 0.06 0.05 -0.06zm-6.22 6.64l-0.05 0.06 0.05 -0.06zm-0.05 0.06l-0.05 0.06 0.05 -0.06zm-0.05 0.06l-0.05 0.05 0.05 -0.05zm-0.05 0.05l-0.05 0.06 0.05 -0.06zm-0.05 0.06c-0.9,0.98 -1.78,1.96 -2.67,2.95l0 -0 0.06 -0.06 0.05 -0.06 0.05 -0.06 0.05 -0.06 0.05 -0.06 0.05 -0.06 0.05 -0.06 0.05 -0.05 0.05 -0.06 0.05 -0.06 0.05 -0.06 0.05 -0.06 0.05 -0.06 0.05 -0.06 0.05 -0.06 0.05 -0.06 0.05 -0.06 0.05 -0.06 0.05 -0.06 0.1 -0.11 0.05 -0.06 0.1 -0.11 0.05 -0.06 1.43 -1.58zm-41.68 50.5l-0.05 0.06 0.05 -0.06zm-0.05 0.06l-0.05 0.07 0 -0 0.05 -0.06zm-0.19 0.26l-0.09 0.13 -0.05 0.06c-0.84,1.13 -1.71,2.26 -2.54,3.41l2.25 -3.02 0.43 -0.58zm-2.68 3.6l-0.05 0.07 0.05 -0.07zm-0.05 0.07l-0.05 0.06 0.05 -0.06zm-0.05 0.06l-0.05 0.07 0.05 -0.07zm-5.15 7.17l-0.06 0.08 0.06 -0.08zm-0.06 0.08l-0.06 0.08 0.06 -0.08zm-0.06 0.08l-0.06 0.08 0.06 -0.08zm-0.06 0.08l-0.06 0.08 0.06 -0.08zm-0.06 0.08l-3.1 4.36 2.99 -4.2 0.06 -0.08 0.06 -0.07zm-3.1 4.36l-0.06 0.08 0.06 -0.08zm-0.06 0.08l-0.06 0.08 0.06 -0.08zm-0.06 0.08l-0.06 0.08 0.06 -0.08zm-0.06 0.08l-0.06 0.08 0.06 -0.08zm-4.85 7.06l-0.06 0.08 0.06 -0.08zm-0.06 0.08l-0.06 0.08 0.06 -0.08zm-0.06 0.08l-0.06 0.08 0.06 -0.08zm-0.06 0.08l-0.06 0.08 0.06 -0.08zm-0.06 0.08l-0.06 0.08 0.06 -0.08zm-0.06 0.08l-2.86 4.22 -0.06 0.08 -0.11 0.16 2.85 -4.22 0.06 -0.08 0.11 -0.16zm-3.02 4.46l-0.06 0.08 0.06 -0.08zm-0.06 0.08l-0.06 0.08 0.06 -0.08zm-0.06 0.08l-0.06 0.08 0.06 -0.08zm-0.06 0.08l-0.06 0.08 0.06 -0.08zm-12.67 19.68l-0.06 0.09 0.06 -0.09zm-0.06 0.09l-0.06 0.09 0.06 -0.09zm-0.06 0.09l-0.06 0.09 0.06 -0.09zm-0.06 0.09l-3.11 5.05 3.11 -5.05zm-3.11 5.05l-0.06 0.09 0.06 -0.09zm-0.06 0.09l-0.06 0.09 0.06 -0.09zm-0.06 0.09l-0.06 0.09 0.06 -0.09zm-0.06 0.09l-0.06 0.09 0.06 -0.09zm-0.06 0.09l-0.06 0.09 0.06 -0.09zm-0.06 0.09l-0.06 0.09 0.06 -0.09zm-4.21 7l-0.06 0.09 0.06 -0.09zm-0.06 0.09l-0.06 0.1 0.06 -0.1zm-0.06 0.1l-0.06 0.09 0.06 -0.09zm-0.06 0.09l-2.99 5.1c1,-1.7 1.98,-3.4 2.99,-5.1zm-2.99 5.1l-0.06 0.09 0.06 -0.09zm-0.06 0.09l-0.05 0.1 0.05 -0.1zm-0.05 0.1l-0.06 0.09 0.06 -0.09zm-0.06 0.09l-0.06 0.1 0.06 -0.1zm-0.06 0.1l-0.06 0.09 0.06 -0.09zm-0.06 0.09l-0.06 0.09 0.06 -0.09zm-0.06 0.09l-0.06 0.1 0.06 -0.1zm-11.54 20.56l-0.06 0.1 0.06 -0.1zm-0.06 0.1l-0.05 0.1 0.05 -0.1zm-0.05 0.1l-2.83 5.34c0.94,-1.78 1.87,-3.57 2.83,-5.34zm-2.83 5.34l-0.06 0.1 0.06 -0.1zm-0.06 0.1l-0.05 0.1 0.05 -0.1zm-0.05 0.1l-0.06 0.1 0.06 -0.1zm-0.06 0.1l-0.05 0.11 0.05 -0.11zm-0.05 0.11l-0.06 0.1 0.06 -0.1zm-0.06 0.1l-0.05 0.1 0.05 -0.1zm-0.05 0.1l-0.06 0.1 0.06 -0.1zm-0.06 0.1l-0.05 0.1 0.05 -0.1zm-0.05 0.1l-0.06 0.1 0.06 -0.1zm-3.98 7.58l-0.05 0.09 -0.05 0.09 -0.05 0.09 -0.61 1.2 0.75 -1.47zm-0.8 1.56l-0.05 0.09 0.05 -0.09zm-0.14 0.28l-0.05 0.09 0.05 -0.09zm-0.09 0.19l-0.05 0.09 0.05 -0.09zm-0.09 0.19l-0.05 0.09 0.05 -0.09zm-0.09 0.19l-0.05 0.09 0.05 -0.09zm-0.09 0.19l-0.05 0.09 0.05 -0.09zm-0.09 0.18l-0.05 0.09 0.04 -0.09 0 0zm-0.05 0.09l-0.05 0.09 0.05 -0.09zm-0.05 0.09l-0.05 0.09 0.05 -0.09zm-0.05 0.09l-0.05 0.09 0.05 -0.09zm-0.05 0.09l-0.04 0.09 0.04 -0.09zm-0.04 0.09l-0.05 0.09 0.05 -0.09zm-0.05 0.09l-0.05 0.09 0.05 -0.09zm-0.05 0.09l-0.05 0.09 0.05 -0.09zm-0.05 0.09l-0.04 0.09 0.04 -0.09zm-0.04 0.09l-0.05 0.09 0.05 -0.09zm-0.05 0.09l-0.05 0.09 0.05 -0.09zm-0.05 0.09l-0.05 0.09 0.05 -0.09zm-0.05 0.09l-0.04 0.09 0.04 -0.09zm-0.04 0.09l-0.05 0.09 0.05 -0.09zm-0.05 0.09l-0.05 0.09 0.05 -0.09zm-0.05 0.09l-0.05 0.09 0.05 -0.09zm-0.05 0.09l-0.04 0.09 0.04 -0.09zm-0.04 0.09l-0.05 0.09 0.05 -0.09zm-0.05 0.09l-0.05 0.09 0.05 -0.09zm-0.05 0.09l-0.05 0.09 0.05 -0.09zm-0.05 0.09l-0.04 0.09 0.04 -0.09zm-0.04 0.09l-0.05 0.09 0.05 -0.09zm-0.05 0.09l-0.05 0.09 0.05 -0.09zm-0.05 0.09l-0.05 0.09 0.05 -0.09zm-0.05 0.09l-0.04 0.09 0.04 -0.09zm-0.04 0.09l-0.05 0.09 0.05 -0.09zm-0.05 0.09l-0.05 0.09 0.05 -0.09zm-0.05 0.09l-0.05 0.09 0.05 -0.09zm-0.05 0.09l-0.04 0.09 0.04 -0.09zm-0.04 0.09l-0.05 0.09 0.05 -0.09zm-0.05 0.09l-0.05 0.09 0.05 -0.09zm-0.05 0.09l-0.05 0.09 0.05 -0.09zm-4.06 8.1l-0.03 0.07 0.03 -0.07zm-0.03 0.07l-0.03 0.06 0 0 0.03 -0.07zm-1.47 3.07l0.04 -0.07 0.03 -0.07 0 -0 0.03 -0.07 0.03 -0.07 -0.03 0.06 0 0 -0.03 0.07 -0.03 0.06 0 0 -0.04 0.07zm1.01 -2.12l0.04 -0.07 0 0 0.03 -0.07 0.04 -0.07 -0.1 0.2zm0.04 -0.07l0.03 -0.07 0 -0 -0.03 0.07zm0.19 -0.41l0.04 -0.07 0 0 -0.04 0.07zm0.04 -0.07l0.03 -0.07 -0.03 0.07zm-15.81 34.44l-0.05 0.12 0.05 -0.12zm-0.05 0.12l-0.05 0.12 0.05 -0.12zm-0.05 0.12l-0.05 0.12 0.05 -0.12zm-0.05 0.12l-0.05 0.12 0.05 -0.12zm-0.05 0.12l-0.05 0.12 0.05 -0.12zm-0.05 0.12l-0.05 0.12 0.05 -0.12zm-0.05 0.12l-0.05 0.12 0.05 -0.12zm-0.05 0.12l-0.05 0.12 0.05 -0.12zm-0.05 0.12l-0.05 0.12 0.05 -0.12zm-0.05 0.12l-0.05 0.12 0.05 -0.12zm-0.05 0.12l-0.05 0.12 0.05 -0.12zm-0.05 0.12l-0.05 0.12 0.05 -0.12zm-0.05 0.12l-0.05 0.11 0.05 -0.11zm-0.05 0.11l-0.1 0.24 0.1 -0.24zm-0.1 0.24l-0.05 0.12 0.05 -0.12zm-0.05 0.12l-0.05 0.12 0.05 -0.12zm-0.05 0.12l-0.05 0.12 0.05 -0.12zm-0.05 0.12l-0.05 0.12 0.05 -0.12zm-0.05 0.12l-0.05 0.12 0.05 -0.12zm-0.05 0.12l-0.05 0.12 0.05 -0.12zm-0.05 0.12l-0.05 0.12 0.05 -0.12zm-0.05 0.12l-0.05 0.12 0.05 -0.12zm-0.05 0.12l-0.05 0.12 0.05 -0.12zm-0.05 0.12l-0.05 0.11 0.05 -0.11zm-0.05 0.11l-0.05 0.12 0.05 -0.12zm-0.05 0.12l-0.05 0.12 0.05 -0.12zm-0.05 0.12l-0.05 0.12 0.05 -0.12zm-0.05 0.12l-0.05 0.12 0.05 -0.12zm-0.05 0.12l-0.05 0.12 0.05 -0.12zm-0.05 0.12l-0.06 0.12 0.06 -0.12zm-0.06 0.12l-0.05 0.11 0.05 -0.11zm-0.05 0.11l-0.05 0.12 0.05 -0.12zm-0.05 0.12l-0.05 0.11 0.05 -0.11zm-0.05 0.11l-0.2 0.47 0.2 -0.47zm-0.2 0.47l-0.05 0.12 0.05 -0.12zm-0.05 0.12l-0.05 0.11 0.05 -0.11zm-0.05 0.11c-0.37,0.87 -0.76,1.74 -1.11,2.61l1.11 -2.61zm-1.11 2.61l-0.05 0.12 0.05 -0.12zm-0.05 0.12l-0.05 0.12 0.05 -0.12zm-3.2 7.78l-0.05 0.12 0.05 -0.12 0 0zm-0.05 0.12l-0.05 0.13 0.05 -0.13zm-0.15 0.37l-0.1 0.25 0.05 -0.12 0.05 -0.13zm-0.1 0.25l-0.05 0.12 0.05 -0.12 0 0zm-0.05 0.12l-0.05 0.12 0.05 -0.12zm-0.05 0.12l-0.06 0.13 0.06 -0.13zm-0.06 0.13l-0.2 0.5 0.1 -0.25 0.05 -0.12 0.05 -0.12zm-0.2 0.5l-0.05 0.12 0.05 -0.12zm-0.05 0.12c-0.69,1.69 -1.39,3.38 -2.06,5.09l1.96 -4.84 0.05 -0.12 0.05 -0.13zm-2.06 5.09l-0.05 0.13 0.05 -0.13zm-0.05 0.13l-0.05 0.13 0.05 -0.13zm-14.07 37.98l-0.04 0.13 0.04 -0.13 -0 0zm-0.04 0.13l-0.05 0.13 0.05 -0.13zm-0.05 0.13l-0.04 0.13 0.04 -0.13zm-0.04 0.13l-0.04 0.13c-0.79,2.33 -1.59,4.66 -2.37,7 0.8,-2.39 1.6,-4.76 2.42,-7.13zm-2.42 7.13l-0.04 0.13 0.04 -0.13zm-0.04 0.13l-0.04 0.13 0.04 -0.13zm-0.04 0.13l-0.04 0.13 0.04 -0.13zm-2.48 7.52l-0.04 0.13 0.04 -0.13zm-0.04 0.13l-0.04 0.13 0.04 -0.13zm-0.04 0.13l-0.09 0.25 0.09 -0.25zm-0.09 0.25l-0.04 0.13 0.04 -0.13zm-0.04 0.13l-0.04 0.13 0.04 -0.13zm-0.04 0.13c-0.69,2.14 -1.37,4.28 -2.04,6.42l2.04 -6.42zm-2.04 6.42l-0.04 0.13 0.04 -0.13zm-0.04 0.13l-0.04 0.13 0.04 -0.13zm-0.04 0.13l-0.04 0.13 0.04 -0.13zm-0.04 0.13l-0.04 0.13 0.04 -0.13zm-0.04 0.13l-0.04 0.13 0.04 -0.13zm-0.04 0.13l-0.04 0.13 0.04 -0.13zm-0.04 0.13l-0.04 0.13 0.04 -0.13zm-0.04 0.13l-0.04 0.13 0.04 -0.13zm-2.35 7.6l-0.04 0.13 0.04 -0.13zm-0.04 0.13l-0.04 0.13 0.04 -0.13zm-0.04 0.13l-0.04 0.13 0.04 -0.13zm-0.04 0.13c-0.69,2.28 -1.37,4.56 -2.04,6.85 0.67,-2.29 1.35,-4.57 2.04,-6.85zm-2.04 6.85l-0.04 0.13 0.04 -0.13zm-0.04 0.13l-0.04 0.13 0 0 0.04 -0.14zm-0.16 0.54l0.04 -0.14 -0.04 0.14zm-2.45 8.43c-0.61,2.15 -1.2,4.31 -1.79,6.48l-0.04 0.15 -0.04 0.14 0 0c0.62,-2.26 1.23,-4.52 1.87,-6.76l0 -0zm-2.22 8.07l0.04 -0.15 0.04 -0.15 -0.04 0.14 0 0 -0.04 0.15zm0.31 -1.15l0.04 -0.15 -0.04 0.14 0 0zm1.91 -6.91l0.04 -0.15 -0.04 0.15zm-15.65 63.81l-0.06 0.26 0 -0 -0.11 0.52 0.11 -0.51 0.06 -0.26zm-4.68 24.27l-0.03 0.17 0.03 -0.17 0 0zm-0.03 0.17l-0.04 0.17 0.04 -0.17zm-0.22 1.2l-0.03 0.17 0.03 -0.17 0 0zm-0.03 0.17l-0.03 0.17 0.03 -0.17 0 0zm-0.03 0.17l-0.03 0.17 0.03 -0.17 0 0zm-0.03 0.17l-0.03 0.17 0.03 -0.17 0 0zm-0.03 0.17l-0.04 0.17 0.04 -0.17zm-0.34 1.89l-0.03 0.18 0.03 -0.18 0 0zm-0.03 0.18l-0.03 0.17 0.03 -0.17 0 0zm-0.03 0.17l-0.03 0.17 0.02 -0.17 0 0zm-0.03 0.17l-0.03 0.17 0.03 -0.17 0 0zm-0.03 0.17l-0.03 0.17 0.03 -0.17 0 0zm-0.03 0.17l-0.03 0.17 0.03 -0.17zm-0.03 0.17c-0.3,1.67 -0.61,3.35 -0.88,5.01l0.88 -5.01zm-0.88 5.01l-0.03 0.17 0.03 -0.17zm-0.03 0.17l-0.03 0.17 0.03 -0.17zm-3.8 24.4l-0.02 0.15 0.02 -0.15zm-0.02 0.15l-0.02 0.16 0.02 -0.16zm-0.02 0.16l-0.02 0.16 0.02 -0.16zm-0.02 0.16l-0.02 0.16 0.02 -0.16zm-0.02 0.16l-0.02 0.15 0.02 -0.15zm-0.02 0.15c-0.4,2.8 -0.8,5.61 -1.18,8.43 0.37,-2.81 0.78,-5.63 1.18,-8.43zm-1.18 8.43l-0.02 0.15 0.02 -0.15zm-0.02 0.15l-0.02 0.16 0.02 -0.16zm-0.02 0.16l-0.02 0.16 0.02 -0.16zm-0.02 0.16l-0.02 0.15 0.02 -0.15zm-0.02 0.15l-0.02 0.16 0.02 -0.16zm-0.98 7.68l-0.02 0.15 0.02 -0.15zm-0.02 0.15l-0.02 0.16 0.02 -0.16zm-0.02 0.16l-0.02 0.15 0.02 -0.15zm-0.02 0.15c-0.37,3.02 -0.75,6.04 -1.09,9.07 0.35,-3.03 0.72,-6.06 1.09,-9.07zm-1.09 9.07l-0.02 0.15 0.02 -0.15zm-0.02 0.15l-0.02 0.15 0.02 -0.15zm-3.29 33.7l-0.01 0.15 0 -0 0.01 -0.15zm-0.72 9.43l-0.01 0.16 0.01 -0.16zm-0.01 0.16l-0.02 0.17 0.02 -0.17zm-0.02 0.17l-0.01 0.16 0.01 -0.16zm-0.01 0.16c-0.2,2.71 -0.36,5.42 -0.53,8.14 0.17,-2.71 0.33,-5.44 0.53,-8.14zm-0.53 8.14l-0.01 0.17 0.01 -0.17zm-0.01 0.17l-0.01 0.16 0.01 -0.16zm-0.01 0.16l-0.01 0.17 0.01 -0.17zm-0.01 0.17l-0.01 0.16 0.01 -0.16zm-0.01 0.16l-0.01 0.16 0.01 -0.16zm-0.01 0.16l-0.01 0.17 0.01 -0.17zm-0.01 0.17l-0.01 0.17 0.01 -0.17zm-0.01 0.17l-0.01 0.16 0.01 -0.16zm-0.01 0.16l-0.01 0.16 0.01 -0.16zm-0.01 0.16l-0.01 0.16 0.01 -0.16zm-0.01 0.16l-0.01 0.17 0.01 -0.17zm-1.25 25.46l-0.01 0.19 0.01 -0.19zm-0.01 0.19l-0.01 0.19 0.01 -0.19zm-0.01 0.19l-0.09 2.91 0.09 -2.91zm-0.09 2.91l-0 0.19 0 0 0 -0.2zm-0.04 1.36l-0.15 6.02 0.15 -6.02zm0 -0.19l0.01 -0.2 -0.01 0.2zm0.02 -0.58l0 -0.2 -0 0.2zm8.26 165.15l0.04 0.26 -0.04 -0.26 0 0zm0.04 0.26l0.02 0.13 -0.02 -0.13zm0.02 0.13l0.02 0.13 -0.02 -0.13zm0.02 0.13l0.02 0.13 -0.02 -0.13zm0.02 0.13l0.02 0.13 -0.02 -0.13zm0.65 4.77l1 6.96 -1 -6.96zm1 6.96l0.02 0.14 -0.02 -0.14zm0.02 0.14l0.11 0.71 -0.11 -0.71zm0.11 0.71l0.02 0.14 -0.02 -0.14zm0.02 0.14l0.02 0.15 -0.02 -0.15zm0.02 0.15l0.02 0.14 -0.02 -0.14zm0.02 0.14l0.02 0.14 -0.02 -0.14zm0.02 0.14l0.02 0.15 -0.02 -0.15zm0.02 0.15l0.02 0.14 -0.02 -0.14zm0.02 0.14l0.02 0.14 -0.02 -0.14zm0.02 0.14l0.02 0.15 -0.02 -0.15zm0.02 0.15l0.02 0.14 -0.02 -0.14z"/>
  <polygon class="fil10" points="5299.17,2620.66 6260.06,3447.56 6180.3,3541.81 5236.5,2721.76 "/>
  <path class="fil11" d="M7862.49 3374.77l-217.53 -14.22c-10.31,-908.16 -457.63,-1405.01 -932.37,-1626.48 371.65,10.41 694.43,232.72 893.21,658.16 129.39,276.34 221.53,590.79 256.69,982.55z"/>
  <polygon class="fil12" points="6260.06,3447.56 6347.07,3572.64 6267.31,3717.65 6180.3,3541.81 "/>
  <polygon class="fil13" points="5197.74,2789.08 6267.31,3717.65 6180.3,3541.81 6169.43,3521.88 5236.5,2721.76 "/>
  <polygon class="fil14" points="7862.49,3374.77 7867.04,3373.44 8500.56,3505.28 8529.59,3510.3 8010.24,3645.35 7167.33,3475.86 7644.96,3360.54 "/>
  <polygon class="fil15" points="8010.24,3645.35 8005.72,3706.97 8529.59,3569.21 8529.59,3510.3 "/>
  <polygon class="fil16" points="8010.24,3645.35 7167.33,3475.86 7170.06,3551.08 8005.72,3706.97 "/>
  <polygon class="fil17" points="7644.96,3360.54 7644.96,3422.38 7306.93,3503.93 7167.33,3475.86 "/>
  <polygon class="fil18" points="7644.96,3422.38 8344.71,3531.14 8419.94,3503.95 7644.96,3360.54 "/>
  <polygon class="fil19" points="7644.96,3360.54 8419.94,3503.95 8344.71,3531.14 7959.72,3635.19 8010.24,3645.35 8529.59,3510.3 7867.04,3373.44 7862.41,3373.86 "/>
  <path class="fil20" d="M7974.37 3701.13l-9.53 389.93 2.54 0.54c49.55,10.6 59.59,38.55 58.2,71.86l-13.01 310.81 53.89 -19.02 3.28 -347.06 357.58 -109.41 12.31 -405.91 -423.04 111.25 -42.2 -3zm125.29 742.4l317.56 -112.08 9.41 -310.15 -323.92 99.11 -3.05 323.11zm-135.4 -328.97l-5.34 218.59 22.74 5.48 7.05 -168.3c0.95,-22.72 -3.8,-42.76 -24.45,-55.78zm-5.95 243.46l-3.34 136.57 20.47 -7.22 5.19 -124.07 -0 0 -22.32 -5.27z"/>
  <path class="fil21" d="M7197.18 3556.14l0 370.68 767.67 164.23 9.53 -389.93 -777.2 -144.98zm-0 389.37l0 203.93 235.69 56.84 -1.33 -210.34 26.57 5.66 -1.45 210.42 11.65 2.81 -1.33 -211.6 26.57 5.69 -1.45 211.65 466.84 112.58 5.34 -218.59c-7.63,-4.81 -17.42,-8.66 -29.9,-11.33l-737.2 -157.71zm0 232.69l0 127.87 236.7 58.88 -0.83 -131.03 -235.87 -55.72zm258.38 192.15l13.76 3.42 -0.83 -131.47 -12.02 -2.84 -0.91 130.89zm35.44 8.81l463.98 115.43 3.34 -136.57 -466.42 -110.19 -0.9 131.33z"/>
  <polygon class="fil22" points="8752.13,2831 8469.7,2899.79 8471.03,2787.48 "/>
  <polygon class="fil23" points="8752.13,2990.52 8752.13,2831 8469.7,2899.79 8467.43,3091.97 "/>
  <polygon class="fil24" points="8752.13,2990.52 8880.84,3005.02 8732.2,3053.97 8609.78,3041.24 "/>
  <polygon class="fil25" points="8880.84,3005.02 8840.96,3650.35 8830.08,3653.97 8712.26,3688.42 8732.2,3053.97 "/>
  <polygon class="fil26" points="8712.26,3688.42 8439.62,3592.87 8529.59,3569.21 8529.59,3510.3 8462.63,3496.47 8467.43,3091.97 8609.78,3041.24 8732.2,3053.97 "/>
  <path class="fil10" d="M7398.28 2351.83l-190.32 906.74c-6.09,0.84 -12.2,1.81 -18.31,2.93l-50.66 -16.6 208.72 -974.9 13.77 21.18 12.31 19.59 24.5 41.06z"/>
  <path class="fil27" d="M7644.75 3345.76l-40.04 -5.38c-17.09,-340.56 -97.49,-633.34 -228.47,-883.57l21.88 -104.24c147.41,251.31 242.97,576.24 246.63,993.19zm-318.07 -977.57c-153.41,-257.53 -363.3,-466.79 -614.09,-634.12 233.37,110.14 462.17,281.51 634.72,537.79l-20.63 96.33z"/>
  <path class="fil28" d="M3146.55 2760.24c4.07,0.52 -10.43,0.09 -11.97,0.09l-135.95 -29 -30.81 74.32 177.47 38.12 1.27 -83.53z"/>
  <polygon class="fil29" points="3970.22,5557.36 3973.85,5892.72 3654.81,6019.61 3647.56,5649.81 "/>
  <polygon class="fil30" points="3647.56,5649.81 3091.06,5397.84 3091.06,5758.57 3654.81,6019.61 "/>
  <polygon class="fil31" points="3970.22,5557.36 3935.91,5514.52 3664.26,5586.27 3658.44,5592.71 3647.56,5649.81 "/>
  <polygon class="fil32" points="3664.26,5586.27 3111.58,5371.5 3091.06,5397.84 3647.56,5649.81 3658.44,5592.71 "/>
  <path class="fil33" d="M5927.91 5201.21l395.17 126.89 286.41 -106.95 25.41 -88.8 126.89 -94.26 123.27 -14.5 31.13 -18.68c-170.05,-121.73 -286.19,-366.25 -286.19,-648.1 0,-371.06 201.27,-677.45 461.88,-724.07 23.84,-51.21 48.98,-103.49 75.46,-156.89l389.44 -94.02c-117.4,-107.31 -240.07,-143.54 -367.13,-120.33l-242.96 -79.63c-259.91,-4.83 -455.71,134.56 -599.61,390.76l-310.36 660.61 123.26 50.76 -14.5 36.25 -58 7.25 0 30.82 30.81 7.25 -1.81 130.52 -27.19 -1.81 -5.57 541.91 -155.79 165.03z"/>
  <path class="fil34" d="M6036.7 4233.25l123.26 50.76 246.54 63.45c226.77,-557.99 384.72,-908.89 783.14,-1085.94l-242.96 -79.63c-547.11,6.98 -630.71,473.61 -909.98,1051.37z"/>
  <path class="fil1" d="M7128.57 3579.11c74.3,-4.48 22.54,-0.49 33.67,0 -5.64,127.08 -11.23,251.69 -16.68,373.23 -5.35,119.21 -10.49,235.95 -15.58,350.35 70.85,15.56 141.32,31.35 211.5,46.66 69.7,15.2 139.27,30.64 208.5,45.59 -25.99,178.84 -91.46,336.76 -177.92,450.55 -84.72,111.5 -187.77,182.39 -304.45,191.19 -116.69,8.79 -228.54,-54.78 -306.78,-167.49 -80.24,-115.59 -130.84,-281.06 -130.84,-481.87 0,-200.81 54.3,-399.81 143.51,-548.03 91.32,-151.71 280.76,-255.7 355.06,-260.18z"/>
  <polygon class="fil35" points="5596.24,5337.21 6034.92,5480.41 6034.92,5672.56 5592.25,5524.22 "/>
  <path class="fil36" d="M6034.92 5480.41l10.88 -1.81 563.7 -257.45 1.87 233.89c-27.24,-0.62 -24.77,-0.19 -50.76,9.06l-525.69 208.46 0 -192.15z"/>
  <polygon class="fil36" points="5596.24,5337.21 5927.91,5201.21 6323.08,5328.1 6609.49,5221.15 6034.92,5480.41 "/>
  <path class="fil37" d="M7340.9 2262.3l-0.06 0.02 0.1 0.15 0.1 0.15 0.1 0.15 0.1 0.15 0.1 0.15 0.35 0.52 0.09 0.13 4.59 6.78 0.09 0.13 0.17 0.26 0.09 0.13 0.09 0.13 0.08 0.13 0.09 0.13 0.1 0.15 0.1 0.15 0.1 0.15 0.39 -1.83 -6.8 -7.71zm-65.33 24.87l-17.06 6.5 -200.06 924.84 80.53 26.4 187.7 -876.72 -0.14 -0.24c-2.81,-4.7 -5.63,-9.39 -8.47,-14.07l-0.14 -0.23 -0.14 -0.23 -0.1 -0.17 -0.11 -0.17 -0.1 -0.17 -0.11 -0.17 -0.11 -0.17 -0.1 -0.17c-2.01,-3.3 -4.02,-6.59 -6.05,-9.88l-0.79 -1.28 -0.09 -0.15c-1.87,-3.03 -3.76,-6.05 -5.65,-9.06l-0.09 -0.15 -0.09 -0.15 -0.09 -0.15 -0.17 -0.26 -0.16 -0.26c-3.35,-5.34 -6.72,-10.66 -10.13,-15.95zm-3.46 -5.38c-4.43,-6.84 -8.89,-13.65 -13.4,-20.41l-0.11 -0.17c4.55,6.82 9.05,13.69 13.51,20.58zm-13.51 -20.58l-1.31 -1.96z"/>
  <path class="fil38" d="M8860.07 4367.41l-824.78 302.72 -366.9 -97.24c-5.55,24.67 -12.02,48.79 -19.36,72.26l386.26 101.12 819.35 -308.16 5.43 -70.7z"/>
  <polygon class="fil38" points="8035.29,4670.13 8035.29,4746.27 6920.47,4454.42 6920.47,4374.66 "/>
  <path class="fil39" d="M8864.04 4293.11l23.23 -435.07 -817.53 250.15 -5.2 551.21 300.37 -110.24 0 -0 215.74 -79.18 279.43 -102.56 3.97 -74.3 -0 0zm-32.13 8.63l-250.99 76.54 0 5.44 -0.21 65.95 -214.64 78.78 4.58 -81.28 -271.91 95.32 3.98 -422.08 751.15 -229.84 -21.96 411.17z"/>
  <line class="fil14" x1="7471.81" y1="4004.27" x2="7462.11" y2= "4002.2" />
  <path class="fil39" d="M8563.27 4476.29l-5.24 32.51 -4.62 157.89 149.51 -71.2 4.6 -172.09 26.05 -9.56 -5.24 31.86 -11.3 378.5 0 -0 -0.8 27.21 -0.09 2.72 0 0 -2.31 77.38 -19.94 1.81 1.85 -69.33 -150.22 72.63 -1.99 67.88 -19.94 1.85 1.59 -60.69 0.91 -34.93 11.13 -424.69 26.04 -9.76zm136.5 237.26l-149.77 70.08 2.39 -81.64 149.75 -76.89 -2.37 88.44zm-150.8 105.29l150.01 -75.67 -2.43 91.13 -150 67.27 2.42 -82.73z"/>
  <path class="fil34" d="M9165.8 4916.66l-447.82 -124.39 -0.95 31.94 0 -0 -0.8 27.21 -0.09 2.72 0 0 -2.31 77.38 -19.94 1.81 1.85 -69.33 -150.22 72.63 -1.99 67.88 -19.94 1.85 1.59 -60.69 0.91 -34.93 1.6 -61.03 -402.39 188.41 445.93 116.01 115.5 -46.13 4.15 -62.63 338.97 -135.95 66.18 35.12 69.78 -27.87zm-468 -130l-21.44 -5.95 -9.07 3.62 -118.96 55.7 -1.8 61.53 150 -67.27 1.27 -47.64z"/>
  <polygon class="fil40" points="9441.33,4809.71 9637.11,4894.91 9299.94,5054.43 9372.45,5097.93 9046.16,5253.82 8690.87,5045.36 9029.85,4909.41 9118.67,4956.54 "/>
  <polygon class="fil41" points="9046.16,5253.82 9044.35,5357.15 8674.56,5291.89 8690.87,5045.36 "/>
  <polygon class="fil42" points="9372.45,5097.93 9046.16,5253.82 9044.35,5357.15 9377.89,5194 "/>
  <polygon class="fil43" points="8571.23,5154.12 8469.73,5458.67 8409.91,5485.86 8090.87,5387.98 8047.37,5331.78 8125.3,5038.11 "/>
  <path class="fil44" d="M8469.73 5458.67l70.7 23.56 366.34 -149.37 -232.21 -40.98 12.17 -183.89 -115.5 46.13 -101.5 304.55zm698.49 -524.68l-2.41 -17.33 -69.78 27.87 22.64 12.01 49.55 -22.55z"/>
  <path class="fil45" d="M8047.37 5331.78c7.6,11.89 4.82,7.33 -7.25,12.69l-72.51 38.06 -937.17 -261.03 -268.65 -83.41 123.27 -14.5 31.13 -18.68c-1.65,-1.18 -3.28,-2.37 -4.92,-3.57 74.45,54.67 159.47,85.7 249.77,85.7 218.81,0 406.68,-181.99 488,-441.89l386.26 101.12 452.6 -170.22 46.54 16.75 -7.33 279.69 0.59 -22.78 -402.39 188.41 -77.93 293.67zm-42.67 -669.76l7.86 -187.76 53.89 -19.02 -1.93 204.16 -29.24 10.73 -30.58 -8.11zm-332.84 -105.26l297.36 79.15 -297.43 -78.83 0.06 -0.31zm17.66 -128.21l265.45 66.03 20.47 -7.22 -2.85 68.05 -288.38 -73.06c2.24,-17.72 4.02,-35.66 5.31,-53.8zm410.2 7.8l0 0 -0.07 7.17 0.03 -2.95 0.04 -4.22zm10.03 3.61l138.87 49.98 -149.9 52.55 0.94 -98.96 10.09 -3.56zm445.6 160.35l17.7 6.37 -0.74 51 -18.9 9 1.94 -66.37zm16.46 91.69l-1.2 81.96 -20.62 9.65 2.39 -81.64 19.43 -9.98zm-1.69 116.15l-0.32 21.82 -21.46 10.05 0.62 -21.2 21.16 -10.67z"/>
  <polygon class="fil46" points="3459.94,5077.93 3285.93,5117.81 3253.3,4327.47 3412.81,4280.33 "/>
  <polygon class="fil23" points="3253.3,4327.47 2889.31,4187.76 2892.94,4666.32 2908.88,4994.54 3285.93,5117.81 "/>
  <path class="fil47" d="M3412.81 4280.33l-126.66 -21.56 -4.21 23.44c-35.33,15.02 -65.57,10.35 -92.45,-7.25 -0.02,-11.39 0.14,-22.2 0.46,-32.56l-65.79 -11.2 -3.8 -0.7c-34.45,13.96 -64.03,9.15 -90.39,-8.11 -0.01,-2.92 0.02,-5.75 0.03,-8.6l-140.7 -26.02 363.98 139.7 159.52 -47.13z"/>
  <polygon class="fil48" points="2488.33,4922.04 2861.74,4829.59 2861.74,5030.8 2489.78,5130.47 "/>
  <polygon class="fil49" points="2488.33,4922.04 2031.53,4749.83 2031.53,4943.79 2489.78,5130.47 "/>
  <polygon class="fil50" points="2861.74,4829.59 2842.71,4812.37 2487.42,4902.1 2484.7,4903 2488.33,4922.04 "/>
  <polygon class="fil51" points="2484.7,4903 2058.72,4729.89 2031.53,4749.83 2488.33,4922.04 "/>
  <path class="fil46" d="M2751.17 3467.35l-16.31 16.31c-4.94,341.65 38.36,656.5 77.94,973.43l-163.14 188.52 -139.58 -1091.25 24.96 -80.28 111.37 -11.4 104.76 4.67z"/>
  <polygon class="fil52" points="2535.04,3474.07 2519.14,3480.03 2454.31,3482.33 2439.38,3489.09 2403.13,3601.48 2381.37,4743.48 2548.14,4696.35 2510.08,3554.36 "/>
  <polygon class="fil53" points="2439.38,3489.09 2299.78,3467.34 2294.35,3470.96 2272.59,3567.04 2403.13,3601.48 "/>
  <path class="fil53" d="M2396.94 3925.94c-6.74,-2.57 -4.22,-1.8 -11.96,-1.8l-112.39 -30.81 -3.63 87.01 126.25 36.28 1.73 -90.67z"/>
  <polygon class="fil53" points="2389.18,4333.8 2270.78,4299.37 2265.34,4384.57 2387.45,4424.57 "/>
  <polygon class="fil54" points="2842.71,4812.37 2719.42,4703.62 2674.1,4706.34 2649.66,4645.61 2510.08,3554.36 2548.14,4696.35 2381.37,4743.48 2382.56,4681.02 2220.02,4696.37 2134.82,4693.65 2133.01,4655.58 2087.69,4657.4 2087.69,4697.28 2058.72,4729.89 2484.7,4903 "/>
  <path class="fil33" d="M3599.17 4055.62l-253.47 57.39c-28.52,6.46 -38.21,27.09 -41.15,43.45l-22.61 125.75c-35.33,15.02 -65.57,10.35 -92.45,-7.25 -0.62,-283.76 105,-239.77 395.17,-304.54 14.73,24 21.52,51.53 14.5,85.2z"/>
  <path class="fil33" d="M3281.45 4038.87l-95.26 21.57c-28.52,6.46 -38.21,27.09 -41.15,43.45l-22.61 125.75c-35.33,15.02 -65.57,10.35 -92.45,-7.25 -0.62,-283.76 105,-239.76 395.17,-304.53 14.02,22.84 20.85,48.89 15.42,80.38 -67.99,11.96 -120.29,21.43 -159.12,40.64z"/>
  <polygon class="fil55" points="4135.56,5883.56 4123.15,5879.41 3972.51,5768.89 3970.22,5557.36 3935.91,5514.52 4048.56,5484.76 "/>
  <polygon class="fil56" points="7668.24,3426 7665.71,3576.07 7306.93,3503.93 7644.96,3422.38 "/>
  <polygon class="fil57" points="7668.24,3426 8344.71,3531.14 7959.72,3635.19 7665.71,3576.07 "/>
  <path class="fil58" d="M8725.77 4334.11l-306.33 -75.96 -2.22 73.3 -317.56 112.08 1.28 -136.05 -2.22 235.01 271.91 -95.32 -4.58 81.28 214.64 -78.78 0.21 -65.95 0 -5.44 144.86 -44.18zm-1235.67 174.28l479.12 127.53 -479.13 -126.99 0 -0.54zm579.03 -337.11l-2.68 283.97 -53.89 19.02 -7.86 187.76 30.58 8.11 29.24 -10.73 4.6 -488.13zm-635.26 193.68l-236.7 -58.88 0 -30.49 -136.41 48.84 373.45 94.61 -0.34 -54.07zm-484.74 -0.55l-0.15 0.05 7.77 3.11 513.38 136.07 -0 -0.56 -520.99 -138.67zm506.42 5.95l13.76 3.42 0.34 54.23 -14.47 -3.67 1.28 -184.88 -0.91 130.89zm499.43 124.24l20.47 -7.22 -2.85 68.05 -481.98 -122.1 1.28 -185.49 -0.9 131.33 463.98 115.43zm25.66 -131.3l-22.32 -5.27 -466.42 -110.19 488.74 115.46z"/>
  <path class="fil59" d="M4164.22 1681.16c-41.02,2.98 -86.22,23.64 -128.22,54.81 -42.32,31.41 -82.17,74.53 -110.02,122.96 -28.91,50.31 -39.96,97.7 -33.54,133.74 6.71,37.63 32.46,62.75 76.25,64.72 45.08,2.03 99.14,-20.81 148.92,-59.18 49.37,-38.05 92.84,-90 118.26,-145.44 24.39,-53.11 27.07,-98.59 12.83,-129.23 -13.64,-29.34 -43.46,-45.37 -84.48,-42.39z"/>
  <path class="fil60" d="M7107.23 3691.04c31.56,-0.18 61.75,8.65 89.95,25.18l0 210.6 163.24 34.92 0 0 -404.48 -86.53c-12.65,-7.3 -37.19,0.56 -37.68,33.57l-6.84 462.25 9.06 3.62 452.18 119.85c-20.71,88.18 -51.76,165.15 -89.32,225.78 -58.9,95.09 -135,151.41 -215.22,148.9 -79.93,-2.5 -151.02,-62.8 -202.33,-159.94 -52.21,-98.83 -85.04,-237.89 -85.04,-395.72 0,-163.43 35.06,-316.26 93.01,-430.31 59.53,-117.15 142.41,-191.69 233.47,-192.19zm89.94 254.48l0 203.93 -244.84 -59.04 -0.44 29.85 245.28 57.94 0 127.87 198.22 49.31c-1.71,17.7 -3.82,35.11 -6.31,52.21l-439.8 -111.41 -1.01 68 8.46 3.39 419.48 111.18 0.14 -0.63 -428.07 -113.94 6.39 -431.65c0.46,-30.84 23.37,-38.18 35.19,-31.36l207.31 44.35z"/>
  <path class="fil45" d="M7108.48 3691.04c19.26,-0.11 38,3.15 56.09,9.44 32.93,104.72 47.81,231.18 38.89,364.24 -10.77,160.78 -54.36,300.57 -114.78,398.11 -58.9,95.09 -135,151.41 -215.22,148.9 -17.2,-0.54 -34,-3.76 -50.28,-9.44 -26.05,-83.13 -41.18,-181.62 -41.18,-288.76 0,-163.43 35.06,-316.26 93.01,-430.31 59.52,-117.15 142.41,-191.69 233.47,-192.19z"/>
  <path class="fil39" d="M6955.94 3875.22l1011.44 216.37c49.55,10.6 59.59,38.55 58.2,71.86l-20.87 498.57 -1084.23 -287.37 -9.06 -3.62 6.84 -462.25c0.49,-33.02 25.03,-40.88 37.68,-33.57zm1016.66 680.2l-481.98 -122.1 1.28 -185.49 488.74 115.46 0 0 -8.04 192.13zm-502.95 -127.41l-14.47 -3.67 1.28 -184.88 12.02 2.84 1.17 185.7zm-35.43 -8.98l-484.93 -122.85 -1.01 68 8.46 3.39 513.38 136.07 -0 -0.56 -521.84 -138.89 6.39 -431.65c0.46,-30.84 23.37,-38.18 35.19,-31.36l944.51 202.06c46.27,9.9 55.65,36 54.35,67.11l-7.05 168.3 -489.59 -118.06 1.45 -211.65 -26.57 -5.69 1.33 211.6 -11.65 -2.81 1.45 -210.42 -26.57 -5.66 1.33 210.34 -480.53 -115.88 -0.44 29.85 481.15 113.67 1.18 185.1zm55.89 89.36l479.12 127.53 -479.13 -126.99 0 -0.54z"/>
  <path class="fil61" d="M2886.16 4187.76l3.62 478.56 -246.53 -1203.64c58.31,-499.99 345.71,-1203.64 668.43,-1521.19 246.04,-281.65 511.96,-421.8 785.47,-507.97 -30.17,52.24 -39.44,72.13 -71.3,98.32 -816.46,671.15 -1389.83,1556.81 -1139.7,2655.92z"/>
  <g id="_2834868274144">
   <ellipse class="fil2" cx="5923.83" cy="4606.42" rx="19.03" ry="24.47"/>
   <ellipse class="fil2" cx="5982.74" cy="4783.16" rx="19.03" ry="24.47"/>
   <ellipse class="fil2" cx="5890.29" cy="4395.24" rx="19.03" ry="24.47"/>
   <ellipse class="fil2" cx="5886.67" cy="4183.15" rx="19.03" ry="24.47"/>
   <ellipse class="fil2" cx="5921.11" cy="3963.81" rx="19.03" ry="24.47"/>
   <ellipse class="fil2" cx="5984.56" cy="3742.67" rx="19.03" ry="24.47"/>
   <ellipse class="fil2" cx="5777.91" cy="4663.51" rx="19.03" ry="24.47"/>
   <ellipse class="fil2" cx="5850.42" cy="4866.54" rx="19.03" ry="24.47"/>
   <ellipse class="fil2" cx="5741.65" cy="4430.04" rx="19.03" ry="24.47"/>
   <ellipse class="fil2" cx="5738.03" cy="4191.86" rx="19.03" ry="24.47"/>
   <ellipse class="fil2" cx="5772.47" cy="3937.71" rx="19.03" ry="24.47"/>
   <ellipse class="fil2" cx="5835.91" cy="3699.16" rx="19.03" ry="24.47"/>
   <ellipse class="fil2" cx="5580.33" cy="3583.14" rx="18.13" ry="19.94"/>
   <ellipse class="fil2" cx="5433.5" cy="3521.51" rx="18.13" ry="19.94"/>
   <ellipse class="fil2" cx="5273.26" cy="3455.23" rx="17.41" ry="19.15"/>
   <ellipse class="fil2" cx="5135.3" cy="3388.56" rx="15.4" ry="16.94"/>
   <ellipse class="fil2" transform="matrix(0.849114 -0.18994 0.18994 0.849114 5501.65 3876.97)" rx="20.83" ry="22.92"/>
   <ellipse class="fil2" transform="matrix(0.849114 -0.18994 0.18994 0.849114 5344.9 3848.88)" rx="20.83" ry="22.92"/>
   <ellipse class="fil2" transform="matrix(0.815345 -0.182386 0.182386 0.815345 5174.06 3819.18)" rx="20.83" ry="22.92"/>
   <ellipse class="fil2" transform="matrix(0.721332 -0.161356 0.161356 0.721332 5024.87 3784.23)" rx="20.83" ry="22.92"/>
   <ellipse class="fil2" transform="matrix(0.803179 -0.334627 0.334627 0.803179 5447.84 4201.26)" rx="20.83" ry="22.92"/>
   <ellipse class="fil2" transform="matrix(0.803179 -0.334627 0.334627 0.803179 5288.59 4200.84)" rx="20.83" ry="22.92"/>
   <ellipse class="fil2" transform="matrix(0.771237 -0.321319 0.321319 0.771237 5115.19 4201.28)" rx="20.83" ry="22.92"/>
   <ellipse class="fil2" transform="matrix(0.682309 -0.284269 0.284269 0.682309 4962.2 4192.79)" rx="20.83" ry="22.92"/>
   <ellipse class="fil2" transform="matrix(0.685268 -0.536172 0.536172 0.685268 5450.75 4475.94)" rx="20.83" ry="22.92"/>
   <ellipse class="fil2" transform="matrix(0.685268 -0.536172 0.536172 0.685268 5297.13 4517.88)" rx="20.83" ry="22.92"/>
   <ellipse class="fil2" transform="matrix(0.658015 -0.514849 0.514849 0.658015 5130.09 4564.42)" rx="20.83" ry="22.92"/>
   <ellipse class="fil2" transform="matrix(0.582142 -0.455484 0.455484 0.582142 4980.34 4596.92)" rx="20.83" ry="22.92"/>
   <ellipse class="fil2" transform="matrix(0.581598 -0.64716 0.64716 0.581598 5493.11 4766.1)" rx="20.83" ry="22.92"/>
   <ellipse class="fil2" transform="matrix(0.581598 -0.64716 0.64716 0.581598 5349.12 4834.11)" rx="20.83" ry="22.92"/>
   <ellipse class="fil2" transform="matrix(0.558468 -0.621423 0.621423 0.558468 5192.72 4908.99)" rx="20.83" ry="22.92"/>
   <ellipse class="fil2" transform="matrix(0.494073 -0.54977 0.54977 0.494073 5050.91 4967.04)" rx="20.83" ry="22.92"/>
   <ellipse class="fil2" transform="matrix(0.521933 -0.696174 0.696174 0.521933 5577.73 5033.43)" rx="20.83" ry="22.92"/>
   <ellipse class="fil2" transform="matrix(0.521933 -0.696174 0.696174 0.521933 5440.34 5113.94)" rx="20.83" ry="22.92"/>
   <ellipse class="fil2" transform="matrix(0.501176 -0.668487 0.668487 0.501176 5291.19 5202.39)" rx="20.83" ry="22.92"/>
   <ellipse class="fil2" transform="matrix(0.443388 -0.591407 0.591407 0.443388 5155.08 5272.77)" rx="20.83" ry="22.92"/>
  </g>
  <path class="fil62" d="M4850.19 3691.29l-15.93 1.12 -212.09 38.07 -1.81 16.31 0 257.41 183.04 -43.97c13.33,-90.2 29.93,-179.4 49.91,-267.17l-3.11 -1.77z"/>
  <polygon class="fil63" points="4622.17,3730.48 4603.13,3745.89 4602.22,4019.61 4620.35,4004.2 "/>
  <polygon class="fil64" points="4803.39,3960.23 4802.43,3977.8 4602.22,4019.61 4620.35,4004.2 "/>
  <g id="_2834868277120">
   <ellipse class="fil55" cx="6252.61" cy="3222.45" rx="24.47" ry="22.66"/>
   <ellipse class="fil55" cx="6393.09" cy="3109.15" rx="24.47" ry="22.66"/>
   <ellipse class="fil55" cx="6529.05" cy="3036.65" rx="24.47" ry="22.66"/>
   <ellipse class="fil55" cx="6679.5" cy="3004.02" rx="24.47" ry="22.66"/>
   <ellipse class="fil55" cx="6822.7" cy="3020.33" rx="24.47" ry="22.66"/>
   <ellipse class="fil55" cx="6944.16" cy="3076.52" rx="24.47" ry="22.66"/>
   <ellipse class="fil55" cx="6159.7" cy="3095.34" rx="21.9" ry="20.28"/>
   <ellipse class="fil55" cx="6320.12" cy="2966.64" rx="21.9" ry="20.28"/>
   <ellipse class="fil55" cx="6486.89" cy="2886.88" rx="21.9" ry="20.28"/>
   <ellipse class="fil55" cx="6649.13" cy="2859.69" rx="21.9" ry="20.28"/>
   <ellipse class="fil55" cx="6813.18" cy="2872.38" rx="21.9" ry="20.28"/>
   <ellipse class="fil55" cx="6946.42" cy="2942.17" rx="21.9" ry="20.28"/>
   <ellipse class="fil55" cx="5990.22" cy="2845.19" rx="20.32" ry="18.81"/>
   <ellipse class="fil55" cx="6185.09" cy="2697.45" rx="20.32" ry="18.81"/>
   <ellipse class="fil55" cx="6392.19" cy="2602.51" rx="20.32" ry="18.81"/>
   <ellipse class="fil55" cx="6594.31" cy="2568.98" rx="20.32" ry="18.81"/>
   <ellipse class="fil55" cx="6778.3" cy="2596.16" rx="20.32" ry="18.81"/>
   <ellipse class="fil55" cx="6952.32" cy="2675.93" rx="20.32" ry="18.81"/>
   <ellipse class="fil55" cx="6958.24" cy="2538.61" rx="17.62" ry="16.31"/>
   <ellipse class="fil55" cx="6774.25" cy="2443.45" rx="17.62" ry="16.31"/>
   <ellipse class="fil55" cx="6560.35" cy="2413.54" rx="17.62" ry="16.31"/>
   <ellipse class="fil55" cx="6115.33" cy="2552.21" rx="17.62" ry="16.31"/>
   <ellipse class="fil55" cx="5897.8" cy="2710.82" rx="17.62" ry="16.31"/>
   <ellipse class="fil55" cx="5897.8" cy="2710.82" rx="13.22" ry="12.24"/>
   <ellipse class="fil55" cx="5792.21" cy="2563.99" rx="13.22" ry="12.24"/>
   <ellipse class="fil55" cx="6030.58" cy="2383.62" rx="13.22" ry="12.24"/>
   <ellipse class="fil55" cx="6523.63" cy="2244.05" rx="13.22" ry="12.24"/>
   <ellipse class="fil55" cx="6760.19" cy="2277.58" rx="13.22" ry="12.24"/>
   <ellipse class="fil55" cx="6964.22" cy="2384.11" rx="13.22" ry="12.24"/>
   <ellipse class="fil55" cx="5606.42" cy="2292.08" rx="21.9" ry="20.28"/>
   <ellipse class="fil55" cx="5888.3" cy="2093.59" rx="21.9" ry="20.28"/>
   <ellipse class="fil55" cx="6185.59" cy="1977.57" rx="21.9" ry="20.28"/>
   <ellipse class="fil55" cx="6464.75" cy="1939.51" rx="21.9" ry="20.28"/>
   <ellipse class="fil55" cx="6724.87" cy="1989.36" rx="21.9" ry="20.28"/>
   <ellipse class="fil55" cx="6963.25" cy="2114.43" rx="21.9" ry="20.28"/>
   <ellipse class="fil55" cx="7321.27" cy="3183.93" rx="17.62" ry="16.31"/>
   <ellipse class="fil55" cx="7355.71" cy="3102.35" rx="17.62" ry="16.31"/>
   <ellipse class="fil55" cx="7482.6" cy="3278.19" rx="17.62" ry="16.31"/>
   <ellipse class="fil55" cx="7535.17" cy="3167.61" rx="17.62" ry="16.31"/>
   <ellipse class="fil55" cx="7392.34" cy="3004.02" rx="22.03" ry="20.39"/>
   <ellipse class="fil55" cx="7461.76" cy="2840.42" rx="22.03" ry="20.39"/>
   <circle class="fil55" cx="7715.54" cy="3236.5" r="20.84"/>
   <circle class="fil55" cx="7697.41" cy="3089.67" r="20.84"/>
   <circle class="fil55" cx="7681.1" cy="2948.28" r="20.84"/>
   <circle class="fil55" cx="7647.57" cy="2807.8" r="20.84"/>
   <circle class="fil55" cx="7615.84" cy="2672.76" r="20.84"/>
   <circle class="fil55" cx="7568.71" cy="2546.77" r="20.84"/>
   <circle class="fil55" cx="7520.68" cy="2418.07" r="20.84"/>
   <circle class="fil55" cx="7468.11" cy="2296.62" r="20.84"/>
   <circle class="fil55" cx="7399.23" cy="2186.04" r="20.84"/>
   <circle class="fil55" cx="7330.34" cy="2090.87" r="20.84"/>
   <ellipse class="fil55" cx="5705.42" cy="2431.39" rx="12.37" ry="13.6"/>
   <ellipse class="fil55" cx="5966.75" cy="2239.53" rx="12.37" ry="13.6"/>
   <ellipse class="fil55" cx="6491.53" cy="2092.69" rx="12.37" ry="13.6"/>
   <ellipse class="fil55" cx="6746.8" cy="2143.45" rx="12.37" ry="13.6"/>
   <ellipse class="fil55" cx="6960.12" cy="2252.22" rx="12.37" ry="13.6"/>
  </g>
 </g>
</svg>
